<svg width="86" height="18" viewBox="0 0 86 18" fill="none" xmlns="http://www.w3.org/2000/svg">
<path d="M9.00464 11.3993L8.29537 13.376H8.23627C8.11805 12.9303 7.90133 12.252 7.5467 11.438L3.74421 2.0388H0.0205383V17.0194H2.48329V7.77523C2.48329 7.19384 2.48329 6.53492 2.46358 5.72097C2.44388 5.31399 2.40448 5.00391 2.38478 4.77135H2.44388C2.56209 5.35275 2.70001 5.77911 2.79852 6.05042L7.36938 16.9807H9.10315L13.6346 5.95353C13.7331 5.70159 13.8316 5.19771 13.9301 4.77135H13.9892C13.9301 5.87601 13.8907 6.86438 13.871 7.46515V16.9613H16.4914V2.00004H12.9056L9.00464 11.3993ZM18.9738 6.22484H21.5351V16.9613H18.9738V6.22484ZM20.2742 1.68996C19.8407 1.68996 19.4861 1.845 19.1906 2.11632C18.895 2.38763 18.7374 2.73647 18.7374 3.16283C18.7374 3.5698 18.895 3.91864 19.1906 4.18996C19.4861 4.46128 19.8407 4.59694 20.2742 4.59694C20.7076 4.59694 21.082 4.4419 21.3578 4.18996C21.6533 3.91864 21.8109 3.5698 21.8109 3.16283C21.8109 2.75585 21.6533 2.40701 21.3578 2.11632C21.1017 1.845 20.7273 1.68996 20.2742 1.68996ZM30.6177 6.12794C30.1449 6.03104 29.6523 5.97291 29.1795 5.97291C28.0171 5.97291 26.9531 6.22484 26.0666 6.72872C25.18 7.23259 24.4707 7.93027 24.0176 8.80236C23.5447 9.69384 23.3083 10.721 23.3083 11.9031C23.3083 12.9303 23.5447 13.8411 23.9979 14.6745C24.451 15.4884 25.0815 16.1473 25.9286 16.5931C26.7364 17.0388 27.6821 17.2714 28.746 17.2714C29.9676 17.2714 31.0118 17.0194 31.8392 16.5543L31.8589 16.5349V14.2093L31.7604 14.2869C31.3861 14.5582 30.9527 14.7907 30.5192 14.9264C30.0661 15.0814 29.6523 15.159 29.2977 15.159C28.2732 15.159 27.4654 14.8683 26.894 14.2287C26.303 13.6086 26.0075 12.7559 26.0075 11.69C26.0075 10.5853 26.303 9.71321 26.9137 9.07368C27.5245 8.43414 28.3323 8.10469 29.3174 8.10469C30.1449 8.10469 30.9921 8.37601 31.7604 8.91864L31.8589 8.99616V6.53492L31.8392 6.51554C31.5043 6.37988 31.13 6.22484 30.6177 6.12794ZM39.0699 6.05042C38.4394 6.05042 37.8484 6.24422 37.3361 6.6512C36.9027 7.00004 36.6071 7.50391 36.351 8.10469H36.3313V6.22484H33.77V16.9613H36.3313V11.4768C36.3313 10.5465 36.5283 9.77136 36.9618 9.20934C37.3952 8.62794 37.9469 8.33725 38.6167 8.33725C38.8532 8.33725 39.0896 8.39539 39.3851 8.43415C39.6609 8.51167 39.858 8.58918 39.9959 8.68608L40.0944 8.7636V6.24422L40.0353 6.22484C39.858 6.10856 39.5033 6.05042 39.0699 6.05042ZM46.0444 5.99229C44.2515 5.99229 42.8133 6.51554 41.8085 7.54267C40.7839 8.56981 40.2914 9.98453 40.2914 11.7675C40.2914 13.4341 40.8036 14.7907 41.7887 15.7791C42.7738 16.7481 44.1136 17.252 45.7882 17.252C47.5417 17.252 48.9406 16.7287 49.9454 15.6822C50.9699 14.6357 51.4624 13.2403 51.4624 11.5155C51.4624 9.81011 50.9896 8.45353 50.0242 7.46515C49.0982 6.47678 47.7388 5.99229 46.0444 5.99229ZM48.0934 14.2481C47.6205 14.8489 46.8719 15.1396 45.9459 15.1396C45.0199 15.1396 44.2712 14.8489 43.7392 14.2093C43.2073 13.6086 42.9512 12.7365 42.9512 11.6318C42.9512 10.4884 43.227 9.61632 43.7392 8.99616C44.2712 8.37601 45.0002 8.06593 45.9262 8.06593C46.8325 8.06593 47.5417 8.35663 48.054 8.9574C48.5662 9.55818 48.8421 10.4303 48.8421 11.5737C48.8027 12.7365 48.5859 13.6473 48.0934 14.2481ZM57.176 10.6822C56.3682 10.3527 55.856 10.1008 55.6195 9.88763C55.4225 9.69384 55.324 9.42252 55.324 9.07368C55.324 8.78298 55.4422 8.49228 55.7378 8.29849C56.0333 8.10469 56.3682 8.00779 56.8608 8.00779C57.2942 8.00779 57.7474 8.08531 58.1808 8.20159C58.6142 8.31787 59.0083 8.49229 59.3235 8.72484L59.422 8.80236V6.43802L59.3629 6.41864C59.0674 6.30236 58.6733 6.18608 58.2005 6.08918C57.7277 6.01167 57.2942 5.97291 56.9396 5.97291C55.7181 5.97291 54.7133 6.2636 53.9252 6.90314C53.1371 7.50391 52.7628 8.31787 52.7628 9.26748C52.7628 9.77135 52.8416 10.2171 53.0189 10.5853C53.1962 10.9535 53.4523 11.3024 53.807 11.5931C54.1616 11.8644 54.6738 12.1745 55.3831 12.4652C55.9742 12.7171 56.4273 12.9109 56.7031 13.0659C56.979 13.221 57.1563 13.3954 57.2942 13.531C57.3927 13.6861 57.4518 13.8799 57.4518 14.1318C57.4518 14.8489 56.9002 15.1977 55.7772 15.1977C55.3437 15.1977 54.8906 15.1202 54.3586 14.9458C53.8267 14.7714 53.3341 14.5194 52.9204 14.2287L52.8219 14.1512V16.6124L52.881 16.6318C53.2553 16.8062 53.7084 16.9225 54.2601 17.0582C54.8118 17.1551 55.3043 17.2326 55.7378 17.2326C57.0578 17.2326 58.1414 16.9419 58.9098 16.3024C59.6979 15.6822 60.1116 14.8876 60.1116 13.8605C60.1116 13.1434 59.9146 12.5039 59.4811 12.0194C58.9098 11.5543 58.2005 11.0698 57.176 10.6822ZM66.8694 5.99229C65.0765 5.99229 63.6382 6.51554 62.6334 7.54267C61.6286 8.56981 61.1164 9.98453 61.1164 11.7675C61.1164 13.4341 61.6286 14.7907 62.6137 15.7791C63.5988 16.7481 64.9386 17.252 66.6133 17.252C68.3667 17.252 69.7656 16.7287 70.7704 15.6822C71.7949 14.6357 72.2874 13.2403 72.2874 11.5155C72.2874 9.81011 71.8146 8.45353 70.8492 7.46515C69.9232 6.47678 68.5637 5.99229 66.8694 5.99229ZM68.8987 14.2481C68.4258 14.8489 67.6772 15.1396 66.7512 15.1396C65.8055 15.1396 65.0765 14.8489 64.5445 14.2093C64.0126 13.6086 63.7565 12.7365 63.7565 11.6318C63.7565 10.4884 64.0323 9.61632 64.5445 8.99616C65.0765 8.37601 65.8055 8.06593 66.7315 8.06593C67.6181 8.06593 68.347 8.35663 68.8593 8.9574C69.3715 9.55818 69.6474 10.4303 69.6474 11.5737C69.6474 12.7365 69.3912 13.6473 68.8987 14.2481ZM85.9803 8.29849V6.22484H83.3993V3.04655L83.3205 3.06593L80.8775 3.78298L80.8184 3.80236V6.22484H76.9568V4.86825C76.9568 4.2481 77.1144 3.7636 77.3902 3.45353C77.6661 3.14345 78.0798 2.98841 78.5921 2.98841C78.9467 2.98841 79.321 3.06593 79.7348 3.24035L79.8333 3.29849V1.10856L79.7742 1.08918C79.4195 0.972905 78.9467 0.895386 78.3359 0.895386C77.5676 0.895386 76.8977 1.0698 76.2869 1.3605C75.6762 1.68996 75.223 2.1357 74.8881 2.73647C74.5531 3.31787 74.3758 3.97678 74.3758 4.7326V6.22484H72.583V8.27911H74.3758V16.9613H76.9568V8.29849H80.8184V13.8217C80.8184 16.0892 81.902 17.2326 84.0692 17.2326C84.4239 17.2326 84.7982 17.1745 85.1528 17.1163C85.5272 17.0388 85.803 16.9419 85.9606 16.8644L85.9803 16.845V14.7714L85.8818 14.8489C85.7242 14.9458 85.5863 15.0233 85.3498 15.0814C85.1528 15.1396 84.9755 15.159 84.8376 15.159C84.3253 15.159 83.9707 15.0427 83.7146 14.752C83.4782 14.4807 83.3599 14.0349 83.3599 13.376V8.29849H85.9803Z" fill="white" fill-opacity="0.6"/>
</svg>
