<svg width="19" height="21" viewBox="0 0 19 21" fill="none" xmlns="http://www.w3.org/2000/svg">
<path d="M15.2934 13.8345L18.5946 16.0326C17.5232 17.6089 14.9604 20.3132 10.5299 20.3132C5.028 20.3132 0.930511 16.0615 0.930511 10.653C0.930511 4.89737 5.07144 0.992798 10.0666 0.992798C15.0907 0.992798 17.5521 4.98413 18.3484 7.13888L18.7828 8.23794L5.83881 13.5886C6.82336 15.5265 8.35811 16.5098 10.5299 16.5098C12.7017 16.5098 14.2075 15.4397 15.2934 13.8345ZM5.14383 10.3493L13.7876 6.76288C13.3098 5.56259 11.8909 4.70937 10.1969 4.70937C8.03958 4.70937 5.04248 6.61827 5.14383 10.3493Z" fill="white" fill-opacity="0.6"/>
</svg>
