<svg width="30" height="31" viewBox="0 0 30 31" fill="none" xmlns="http://www.w3.org/2000/svg">
<path d="M15.477 26.076C9.41039 26.076 4.66136 21.1881 4.66136 15.1288C4.66136 9.06949 9.41039 4.18155 15.477 4.18155C18.7492 4.18155 21.1382 5.46861 22.9046 7.1172L25.8148 4.21047C23.3534 1.85327 20.0667 0.0600586 15.477 0.0600586C7.16618 0.0600586 0.172951 6.82798 0.172951 15.1288C0.172951 23.4296 7.16618 30.1975 15.477 30.1975C19.9654 30.1975 23.3534 28.7225 26.003 25.9748C28.725 23.2561 29.5648 19.4383 29.5648 16.3436C29.5648 15.3746 29.449 14.3768 29.3187 13.6393H15.477V17.6595H25.337C25.0474 20.1758 24.2511 21.8967 23.0783 23.0681C21.6594 24.4998 19.4152 26.076 15.477 26.076Z" fill="white" fill-opacity="0.6"/>
</svg>
