<svg width="20" height="29" viewBox="0 0 20 29" fill="none" xmlns="http://www.w3.org/2000/svg">
<path d="M15.1168 1.74485H19.1419V18.9249C19.1419 26.0544 14.9286 28.99 9.94792 28.99C5.25681 28.99 2.43345 25.8375 1.3765 23.2778L5.06858 21.7449C5.73461 23.3212 7.34175 25.1867 9.94792 25.1867C13.1477 25.1867 15.1168 23.2055 15.1168 19.5034V18.1151H14.9721C14.0165 19.272 12.1921 20.3132 9.87553 20.3132C5.03963 20.3132 0.609131 16.105 0.609131 10.682C0.609131 5.23003 5.03963 0.978394 9.87553 0.978394C12.1777 0.978394 14.0165 2.00515 14.9721 3.13314H15.1168V1.74485ZM15.4064 10.682C15.4064 7.26908 13.1332 4.78173 10.2375 4.78173C7.31279 4.78173 4.85141 7.26908 4.85141 10.682C4.85141 14.0515 7.31279 16.4954 10.2375 16.4954C13.1332 16.5099 15.4064 14.0515 15.4064 10.682Z" fill="white" fill-opacity="0.6"/>
</svg>
